<?xml version="1.0" encoding="UTF-8"?>
<svg id="Layer_1" data-name="Layer 1" xmlns="http://www.w3.org/2000/svg" viewBox="0 0 100 40">
  <defs>
    <style>
     .cls-2 {
        stroke-width: 0px;
      }

      .cls-2 {
        fill: #0445d2;
      }
    </style>
  </defs>
  <g>
    <g>
      <path class="cls-2" d="M58.78,30.59c.31,0,.59-.04.86-.12.26-.08.49-.19.68-.34s.34-.32.45-.53c.11-.21.16-.45.16-.72v-.02c0-.51-.19-.92-.56-1.21-.37-.29-.89-.43-1.56-.43h-2.55v3.36h2.54,0ZM54.46,25.71h4.47c.65,0,1.22.09,1.71.28s.92.44,1.24.77c.26.26.46.56.6.91s.21.73.21,1.15v.03c0,.44-.07.83-.21,1.17s-.33.64-.59.9c-.25.25-.55.46-.9.63-.35.16-.73.28-1.13.35l3.2,4.25h-2.19l-3.02-4.04h-1.61v4.04h-1.78v-10.42Z"/>
      <polygon class="cls-2" points="67.57 27.48 64.37 27.48 64.37 25.71 72.54 25.71 72.54 27.48 69.34 27.48 69.34 36.13 67.57 36.13 67.57 27.48"/>
      <polygon class="cls-2" points="74.76 25.71 82.29 25.71 82.29 27.48 76.53 27.48 76.53 30.03 81.62 30.03 81.62 31.8 76.53 31.8 76.53 34.35 82.36 34.35 82.36 36.13 74.76 36.13 74.76 25.71"/>
      <path class="cls-2" d="M36.83,30.9c.33,0,.64-.04.92-.13.28-.09.51-.21.71-.37.2-.16.35-.35.46-.57s.16-.46.16-.74v-.02c0-.58-.2-1.03-.6-1.31-.4-.3-.93-.45-1.58-.45h-2.05v3.58h2.01-.02ZM33.05,25.73h3.89c.59,0,1.12.08,1.59.23s.89.37,1.24.66c.34.28.61.63.79,1.04.18.41.28.87.28,1.38v.03c0,.57-.11,1.06-.33,1.48-.22.42-.51.78-.89,1.07-.37.29-.81.51-1.29.65-.5.14-1.02.22-1.57.22h-1.93v3.68h-1.77v-10.42h0Z"/>
      <path class="cls-2" d="M98.21,29.06c-.64.64-1.68.64-2.33,0-.64-.64-.64-1.68,0-2.33s1.68-.64,2.33,0c.65.64.65,1.68,0,2.33M95.1,25.96c-1.08,1.08-1.08,2.82,0,3.88l1.95,1.95,1.95-1.95c1.08-1.08,1.08-2.82,0-3.88-1.08-1.08-2.82-1.08-3.89,0"/>
      <path class="cls-2" d="M89.05,30.56c.31,0,.59-.04.86-.12.26-.08.49-.19.68-.34s.34-.32.45-.53c.11-.21.16-.45.16-.72v-.02c0-.51-.19-.92-.56-1.21-.37-.29-.89-.43-1.56-.43h-2.55v3.36h2.54,0ZM84.73,25.68h4.47c.65,0,1.22.09,1.71.28s.92.44,1.24.77c.26.26.46.56.6.91s.21.73.21,1.15v.03c0,.44-.07.83-.21,1.17s-.33.64-.59.9c-.25.25-.55.46-.9.63-.35.16-.73.28-1.13.35l3.2,4.25h-2.19l-3.02-4.04h-1.61v4.04h-1.78v-10.42Z"/>
      <path class="cls-2" d="M47.39,25.6c-2.91,0-5.26,2.36-5.26,5.26s2.36,5.26,5.26,5.26,5.26-2.36,5.26-5.26-2.36-5.26-5.26-5.26ZM47.39,34.35c-1.92,0-3.49-1.56-3.49-3.49s1.56-3.49,3.49-3.49,3.49,1.56,3.49,3.49-1.56,3.49-3.49,3.49Z"/>
    </g>
    <g>
      <path class="cls-2" d="M38.72,15.92l-2.68,5.18v2.55h-1.88v-2.55l-2.68-5.18h2.14l1.49,3.24,1.48-3.24h2.12Z"/>
      <path class="cls-2" d="M41.14,17.42v1.56h2.52v1.45h-2.52v1.69h2.85v1.5h-4.73v-7.73h4.73v1.5h-2.85Z"/>
      <path class="cls-2" d="M49.8,22.27h-2.89l-.46,1.36h-1.97l2.8-7.73h2.18l2.8,7.73h-1.99l-.46-1.36h0ZM49.31,20.83l-.96-2.83-.95,2.83h1.9Z"/>
      <path class="cls-2" d="M56.82,23.65l-1.6-2.92h-.45v2.92h-1.88v-7.73h3.16c.61,0,1.13.11,1.55.32s.75.51.97.88c.21.37.32.79.32,1.24,0,.52-.15.98-.44,1.37s-.72.69-1.28.86l1.78,3.06h-2.12ZM54.77,19.39h1.17c.35,0,.61-.09.78-.25s.26-.41.26-.72-.09-.53-.26-.7-.43-.25-.78-.25h-1.17v1.91Z"/>
      <path class="cls-2" d="M61.13,23.45c-.45-.18-.81-.46-1.08-.82s-.41-.8-.43-1.29h2c.03.29.13.51.3.66s.39.23.66.23.5-.06.66-.19.24-.31.24-.54c0-.19-.07-.35-.19-.48-.13-.12-.29-.23-.47-.31s-.46-.17-.8-.28c-.5-.15-.91-.31-1.23-.46s-.59-.38-.82-.68c-.23-.3-.34-.7-.34-1.18,0-.72.26-1.28.79-1.69.52-.41,1.2-.61,2.04-.61s1.53.2,2.06.61c.52.41.8.98.84,1.7h-2.04c0-.25-.11-.45-.28-.59s-.39-.22-.65-.22c-.23,0-.41.06-.55.18s-.21.3-.21.52c0,.25.12.45.35.59s.61.29,1.11.45c.5.17.91.33,1.22.49.31.15.58.38.81.67s.34.67.34,1.14-.11.84-.34,1.2c-.23.36-.55.65-.98.86-.43.21-.93.32-1.5.32s-1.08-.09-1.52-.28h0Z"/>
      <path class="cls-2" d="M70.17,23.22c-.61-.34-1.09-.81-1.44-1.41s-.54-1.28-.54-2.04.18-1.43.54-2.04c.36-.6.84-1.08,1.44-1.41s1.27-.51,2-.51,1.39.17,2,.51,1.09.81,1.43,1.41c.35.6.53,1.28.53,2.04s-.18,1.43-.53,2.04c-.35.61-.83,1.08-1.43,1.41s-1.26.51-1.99.51-1.39-.17-2-.51h0ZM73.65,21.38c.37-.41.56-.96.56-1.63s-.19-1.23-.56-1.63-.87-.61-1.48-.61-1.13.2-1.49.61-.56.95-.56,1.64.19,1.23.56,1.63c.37.41.87.61,1.49.61s1.11-.21,1.48-.62Z"/>
      <path class="cls-2" d="M81.98,15.92v1.5h-3.15v1.63h2.36v1.46h-2.36v3.13h-1.88v-7.73s5.03,0,5.03,0Z"/>
    </g>
    <g>
      <path class="cls-2" d="M13.74,3.06h-4.88c-.41,0-.75.33-.75.75v.1c0,1.79-.6,3.17-1.78,4.09-1.21.95-3.02,1.42-5.39,1.42-.41,0-.75.33-.75.75v4.69c0,.41.33.75.75.75,3.05,0,5.44-.89,7.1-2.64,0,0,0,0,.02.02v23.25c0,.41.33.75.75.75h4.93c.41,0,.75-.33.75-.75V3.79c0-.41-.33-.75-.75-.75h0Z"/>
      <path class="cls-2" d="M20.01,7.56c-5.27,5.28-5.27,13.8,0,19.04l9.54,9.54v-10.97c-2.06,0-4.12-.79-5.72-2.35-3.14-3.14-3.14-8.25,0-11.42,3.14-3.18,8.24-3.14,11.41,0,.35.34.66.71.93,1.1h6.07c-.66-1.8-1.7-3.49-3.15-4.93-5.27-5.28-13.8-5.28-19.08,0h0Z"/>
    </g>
  </g>
</svg>
